<svg width="534" height="1036" viewBox="0 0 534 1036" fill="none" xmlns="http://www.w3.org/2000/svg">
<path d="M176.083 1.16913C175.883 1.86913 175.283 56.6691 174.683 122.969C174.083 189.269 173.383 244.97 172.983 246.67C172.683 248.47 171.983 249.97 171.583 249.97C170.783 249.97 168.083 245.67 162.483 235.47C154.783 221.17 154.483 225.97 161.583 248.77C163.983 256.17 164.083 259.87 162.183 260.57C161.283 260.87 156.883 258.07 151.383 253.77C111.083 221.67 102.083 215.069 100.783 216.469C100.383 216.769 113.683 230.27 130.083 246.47C163.083 278.77 163.783 279.77 150.983 276.57C147.283 275.67 143.883 275.27 143.483 275.67C142.983 276.17 144.383 278.37 146.583 280.47C150.583 284.37 151.683 286.87 149.383 287.07C148.683 287.17 146.983 287.37 145.583 287.57C142.983 287.97 109.583 289.27 63.5834 290.97C5.98342 292.97 0.483419 293.27 0.0834195 294.07C-0.816581 295.47 5.08342 295.87 41.5834 296.97C61.6834 297.47 94.2834 298.47 114.083 298.97C133.883 299.57 150.383 300.37 150.783 300.77C151.983 301.97 148.483 307.77 139.083 320.37C127.283 336.27 127.583 337.97 140.183 327.37C144.483 323.77 149.183 320.07 150.583 319.17C151.983 318.27 154.783 316.17 156.883 314.57C160.183 311.97 160.783 311.77 162.083 313.07C162.983 313.87 164.183 317.77 164.983 321.77C166.183 327.87 166.083 329.77 164.883 335.07C163.183 342.57 157.683 353.77 153.283 358.77C151.383 360.77 148.583 364.27 146.983 366.47C145.383 368.67 143.683 370.97 143.083 371.67C140.983 374.27 139.983 375.57 138.483 377.97C137.583 379.37 133.683 384.27 129.783 388.87C125.883 393.47 122.183 398.77 121.483 400.67C120.283 404.47 114.983 414.77 113.083 416.97C109.183 421.57 106.583 428.27 106.583 433.47C106.583 436.37 106.083 440.07 105.583 441.57C104.583 444.07 104.183 444.17 100.183 443.67C95.7834 443.07 95.6834 443.07 89.9834 449.27C82.4834 457.37 79.5834 463.87 78.8834 473.87C78.0834 485.77 80.8834 498.97 84.1834 498.97C87.1834 498.97 103.283 511.87 105.583 516.07C106.183 516.97 105.483 522.27 103.883 530.07C100.283 547.97 99.8834 550.97 97.5834 576.97C95.5834 599.47 94.7834 649.27 96.0834 663.47C96.2834 666.27 96.9834 675.17 97.5834 683.47C99.2834 706.47 101.083 716.97 103.383 717.77C104.083 717.97 104.983 716.87 105.583 715.27C106.183 713.77 107.083 711.57 107.583 710.47C108.083 709.37 109.683 704.87 111.183 700.57C112.583 696.17 115.683 688.27 118.083 683.07C125.183 666.97 125.283 666.67 123.083 661.17C121.983 658.37 120.983 653.27 120.783 648.47C120.483 640.77 121.083 637.47 123.783 633.67C124.883 632.27 124.783 631.47 123.383 629.17C122.383 627.67 120.183 623.57 118.383 619.97L115.083 613.47L114.983 580.47C114.883 562.27 114.683 546.37 114.483 544.97C114.183 543.07 114.583 542.37 116.083 542.17C117.583 541.97 119.083 543.17 121.383 546.37C123.183 548.77 124.583 551.47 124.583 552.27C124.583 554.27 127.883 556.97 130.483 556.97C133.283 556.97 133.983 558.87 132.683 563.57C132.183 565.77 131.383 576.27 131.083 586.97C130.283 611.87 130.383 611.37 126.083 610.57C121.683 609.67 121.683 610.47 125.583 617.87C130.783 627.47 134.383 631.07 139.583 631.57C149.483 632.67 150.583 632.97 150.583 634.97C150.583 637.37 146.983 640.17 141.083 642.37C136.483 644.17 136.383 644.17 134.183 642.07C131.283 639.37 130.183 639.37 128.583 642.47C126.883 645.67 128.383 655.77 131.483 662.27C134.983 669.47 134.283 673.97 126.783 691.97C113.683 723.27 114.283 722.17 106.583 730.47C102.683 734.77 98.1834 742.47 94.6834 751.47C94.1834 752.57 93.3834 754.57 92.7834 755.97C92.1834 757.37 90.5834 761.87 89.0834 765.97C87.5834 770.07 85.9834 774.37 85.5834 775.47C82.7834 781.87 81.1834 788.57 80.5834 796.97C79.9834 804.07 79.1834 807.77 77.2834 811.47C75.8834 814.17 74.2834 818.37 73.6834 820.67C72.9834 822.97 70.6834 829.57 68.4834 835.17C63.8834 846.67 47.8834 894.47 43.9834 908.47C42.5834 913.37 40.1834 922.37 38.4834 928.47C33.7834 946.07 32.6834 949.97 32.1834 950.77C31.8834 951.27 30.7834 955.17 29.5834 959.47C27.9834 965.27 27.5834 969.67 27.7834 976.87L27.9834 986.47L19.9834 1001.47C15.4834 1009.67 10.4834 1018.97 8.78342 1021.97C4.98342 1028.67 4.7 1034.11 8 1035.81L34.5 1035.81L60 1035.81C60.5 1035.51 60.5834 1027.97 60.5834 1019.67C60.5834 1006.97 60.8834 1003.57 62.5834 998.97C63.6834 995.97 64.5834 992.57 64.5834 991.37C64.5834 990.17 65.2834 987.57 66.0834 985.57C66.9834 983.57 68.2834 979.17 68.9834 975.67C69.7834 972.27 71.6834 965.87 73.2834 961.47C75.6834 955.17 97.6834 899.67 101.483 890.47C102.483 887.97 103.683 884.57 108.783 869.47C112.583 858.07 113.983 853.37 115.283 846.47C116.483 840.07 121.783 835.87 124.283 839.17C124.783 839.87 126.683 844.27 128.483 848.97C136.283 869.07 151.983 900.37 158.183 908.27C159.383 909.77 160.983 910.97 161.683 910.97C162.483 910.87 166.283 908.17 170.083 904.77C182.483 894.07 191.983 890.97 213.083 890.97C225.883 890.97 237.883 892.17 247.383 894.47C257.383 896.97 270.783 900.87 273.483 902.27C278.083 904.57 283.583 915.27 289.183 932.47C291.983 941.17 302.483 982.37 304.583 992.97C305.283 996.57 306.283 1000.17 306.683 1001.17C307.183 1002.07 308.183 1009.07 308.983 1016.67C309.783 1024.27 310.983 1031.77 311.483 1033.27L312.5 1035.81L342.07 1035.81C364.97 1035.81 371.583 1035.81 371.583 1035.81C372.183 1029.91 366.683 1020.77 358.383 1015.47C354.783 1013.27 352.383 1009.17 349.083 999.97C346.083 991.57 344.183 983.87 343.083 976.47C342.483 971.87 340.183 962.27 337.683 953.97C334.683 944.07 328.383 914.37 327.583 906.47C326.583 895.67 326.483 895.87 338.083 890.97C371.883 876.87 402.483 849.27 439.283 799.97C449.283 786.47 460.583 770.27 460.583 769.37C460.583 768.97 462.683 765.57 470.183 753.97C471.383 752.07 472.783 748.77 473.083 746.77C473.883 742.57 474.883 743.07 460.883 740.57C449.883 738.57 443.583 735.77 443.583 732.87C443.583 727.87 464.083 706.87 487.083 688.37C496.583 680.67 501.283 676.37 514.183 663.37C527.283 650.37 533.583 641.67 533.583 637.07V634.17L525.383 633.57C520.783 633.27 509.883 632.77 501.083 632.47C492.283 632.17 482.583 631.57 479.583 631.07C472.183 629.87 447.083 619.87 440.183 615.47C437.183 613.57 434.383 611.97 434.083 611.97C433.483 611.97 420.083 603.47 413.283 598.77C409.083 595.87 375.783 579.47 367.283 576.07C354.983 571.17 332.983 564.07 315.483 559.47C295.283 554.07 284.083 549.87 275.883 544.67C269.183 540.57 258.883 529.97 257.983 526.47C257.683 525.27 258.383 520.57 259.483 515.87C260.583 511.27 261.983 504.77 262.683 501.47C263.283 498.17 264.883 493.37 266.183 490.77C267.983 487.27 268.583 484.37 268.583 479.77C268.583 471.37 270.083 468.67 274.983 467.87C277.083 467.57 279.183 466.67 279.683 465.87C281.083 463.77 279.783 453.47 276.883 444.67C273.183 433.07 266.683 425.57 258.583 423.67C256.683 423.17 255.283 421.47 253.183 417.27C251.683 414.07 248.883 408.97 246.983 405.87C245.183 402.87 242.083 396.27 240.183 391.27C235.183 378.17 229.183 367.47 223.883 362.07C223.083 361.37 220.683 357.17 218.483 352.77C216.283 348.37 211.883 340.87 208.683 336.17C202.283 326.67 198.783 320.37 196.883 314.97C195.583 311.37 195.183 306.97 196.083 306.97C196.383 306.97 200.583 310.37 205.383 314.57C221.683 328.87 232.583 336.27 232.583 333.17C232.583 332.67 228.183 327.27 222.883 321.07C208.483 304.47 207.083 302.37 208.483 300.57C209.783 299.07 206.783 299.17 313.083 297.07C374.483 295.87 386.583 295.37 386.583 293.97C386.583 292.87 344.983 291.17 258.583 288.87C222.583 287.87 210.483 287.47 207.383 287.07C204.983 286.77 207.483 283.87 213.583 279.97C220.183 275.77 222.383 272.97 219.183 272.97C218.383 272.97 214.183 273.67 209.883 274.47C200.183 276.37 199.583 276.37 199.583 274.37C199.583 272.37 201.983 268.87 212.383 256.17C218.383 248.87 220.583 245.57 219.783 244.77C218.483 243.47 218.283 243.67 202.683 257.67C198.283 261.67 192.883 264.67 191.983 263.67C191.083 262.77 192.583 259.369 217.183 208.169C224.283 193.469 225.583 189.969 223.783 189.969C222.683 189.969 217.683 197.769 214.083 204.969C212.583 207.969 209.883 212.969 208.083 215.969C201.583 226.969 192.883 242.57 191.183 246.17C189.483 249.97 186.483 251.27 185.083 248.87C184.483 247.97 183.883 214.069 182.083 71.9691C181.583 28.1691 180.583 5.56913 178.983 1.46913C178.283 -0.330875 176.683 -0.530875 176.083 1.16913ZM198.183 369.17C200.383 371.67 202.783 377.47 207.583 391.47C210.983 401.47 212.583 405.47 216.783 414.97L219.683 421.37L219.383 453.57L219.083 485.77L216.583 487.87C213.683 490.27 210.983 490.57 210.283 488.57C209.983 487.77 210.683 484.47 211.783 481.27C213.483 476.57 213.883 473.27 213.883 463.97C213.883 444.97 210.083 434.67 198.383 422.37L191.283 414.97H185.083C178.783 414.97 169.583 417.37 165.283 420.27C159.283 424.17 151.583 442.87 151.583 453.37C151.583 459.67 151.683 459.97 159.083 471.17C169.683 487.17 170.583 488.27 174.783 491.47C176.883 493.07 178.483 494.87 178.283 495.47C178.083 495.97 176.183 496.57 173.983 496.77C170.983 496.97 168.983 496.37 166.283 494.47C164.183 493.07 162.183 491.97 161.683 491.97C159.683 491.97 156.183 486.37 153.183 478.37C151.383 473.47 148.683 466.97 147.283 463.87C143.383 455.27 140.483 444.87 141.083 441.87C141.383 440.37 143.483 436.87 145.583 433.97C147.783 431.07 150.083 427.07 150.683 425.07C151.283 423.07 152.883 419.37 154.183 416.77C156.583 411.97 157.383 410.07 162.483 396.17C168.683 379.07 170.883 377.07 176.983 382.77C180.783 386.37 183.183 387.27 185.583 385.97C187.283 385.07 190.583 378.27 190.583 375.57C190.583 372.97 193.583 366.97 194.883 366.97C195.683 366.97 197.083 367.97 198.183 369.17ZM287.583 611.47C287.583 611.67 286.283 614.87 284.583 618.47C281.883 624.37 281.583 626.07 281.583 635.07C281.583 643.57 281.983 646.17 284.183 651.77C285.683 655.47 287.283 658.97 287.783 659.57C288.283 660.27 290.483 664.17 292.683 668.47C297.383 677.37 297.483 680.77 293.583 693.97C289.083 709.37 290.183 729.47 296.283 741.97C299.383 748.47 312.983 762.27 319.483 765.67C321.883 766.97 325.283 767.97 327.083 767.97C329.883 767.97 330.383 767.57 330.983 764.87C331.283 763.17 331.583 758.87 331.583 755.27C331.583 748.57 330.083 746.47 327.083 748.97C324.983 750.67 323.283 749.27 324.683 746.87C325.183 745.77 325.583 743.67 325.383 742.17C325.083 739.77 324.583 739.37 319.583 738.67C316.583 738.27 313.783 737.57 313.283 737.07C311.883 735.67 313.483 733.97 316.183 733.97C319.083 733.97 325.083 731.67 325.983 730.17C326.283 729.57 325.683 727.07 324.583 724.47C323.483 721.87 322.583 719.57 322.583 719.37C322.583 718.07 326.383 719.27 327.883 720.97C331.683 725.47 331.783 725.17 333.683 674.97C334.283 658.77 335.183 645.07 335.583 644.67C336.483 643.67 337.283 658.77 338.083 687.97C338.783 713.87 339.483 722.97 340.783 722.97C341.383 722.97 342.983 721.77 344.483 720.17C346.483 717.97 347.083 717.77 347.383 719.07C347.583 719.97 346.783 722.37 345.583 724.47L343.483 728.27L345.683 730.57C346.983 731.97 349.583 733.17 352.083 733.47C354.383 733.87 356.883 734.57 357.683 735.07C359.683 736.37 357.383 737.67 351.883 738.57C349.583 738.87 346.883 739.77 345.883 740.47C344.183 741.77 344.183 741.97 345.983 745.37C348.283 749.67 347.583 750.87 344.183 748.57C342.783 747.67 341.183 746.97 340.583 746.97C339.983 746.97 339.583 750.87 339.583 757.37C339.583 767.27 339.683 767.77 341.783 768.27C346.983 769.67 356.183 764.47 365.083 755.27C377.883 742.07 381.083 733.87 380.983 714.47C380.983 702.97 380.683 700.57 378.183 693.47C373.383 679.57 373.483 677.97 379.983 666.57C391.283 646.67 393.383 632.37 387.083 618.47C385.583 615.37 384.683 612.27 384.883 611.67C385.483 610.27 396.483 621.57 400.683 627.87C404.583 633.57 407.883 640.17 410.183 646.97C411.683 651.37 412.083 655.37 412.083 666.97C412.083 681.47 411.683 683.27 407.483 693.47C403.983 702.07 402.783 706.47 403.683 707.47C405.083 708.77 408.583 704.37 412.983 695.97C417.083 688.07 418.183 682.97 419.183 667.67C419.783 657.57 420.083 655.97 421.483 656.17C422.483 656.37 423.583 658.47 424.483 661.47C426.283 668.17 426.483 696.67 424.783 703.87C423.483 709.57 418.583 720.57 415.483 725.17C413.483 727.87 412.983 730.97 414.383 730.97C415.083 730.97 419.583 725.47 421.583 722.07C421.983 721.37 422.883 720.87 423.483 721.07C424.883 721.57 416.583 737.97 411.483 744.57C403.283 755.27 386.483 767.87 372.083 774.17C363.883 777.77 359.583 778.87 349.083 779.97C327.083 782.37 313.183 780.37 295.583 772.17C292.083 770.57 288.783 768.57 279.083 762.37C272.683 758.27 261.483 746.47 255.383 737.47C250.583 730.27 246.083 721.17 246.883 720.37C247.183 720.07 249.283 722.17 251.583 724.87C258.483 732.97 259.283 731.27 253.683 720.67C247.783 709.77 245.983 703.87 245.083 693.27C244.083 681.27 246.783 659.67 249.783 656.47C251.583 654.47 252.583 658.67 252.583 668.97C252.583 683.77 255.283 692.37 262.983 702.67C265.783 706.57 268.583 708.27 268.583 706.17C268.583 705.67 266.683 700.37 264.383 694.37L260.083 683.47V667.47C260.183 658.67 260.683 649.77 261.283 647.77C263.983 638.37 270.483 627.37 278.083 619.17C284.783 611.97 287.583 609.77 287.583 611.47Z" fill="black"/>
</svg>
