<svg width="534" height="1037" viewBox="0 0 534 1037" fill="none" xmlns="http://www.w3.org/2000/svg">
<path d="M176.083 1.16925C175.883 1.86925 175.283 56.6692 174.683 122.969C174.083 189.269 173.383 244.969 172.983 246.669C172.683 248.469 171.983 249.969 171.583 249.969C170.783 249.969 168.083 245.669 162.483 235.469C154.783 221.169 154.483 225.969 161.583 248.769C163.983 256.169 164.083 259.869 162.183 260.569C161.283 260.869 156.883 258.069 151.383 253.769C111.083 221.669 102.083 215.069 100.783 216.469C100.383 216.769 113.683 230.269 130.083 246.469C163.083 278.769 163.783 279.769 150.983 276.569C147.283 275.669 143.883 275.269 143.483 275.669C142.983 276.169 144.383 278.369 146.583 280.469C150.583 284.369 151.683 286.869 149.383 287.069C148.683 287.169 146.983 287.369 145.583 287.569C142.983 287.969 109.583 289.269 63.5834 290.969C5.98342 292.969 0.483419 293.269 0.0834195 294.069C-0.816581 295.469 5.08342 295.869 41.5834 296.969C61.6834 297.469 94.2834 298.469 114.083 298.969C133.883 299.569 150.383 300.369 150.783 300.769C151.983 301.969 148.483 307.769 139.083 320.369C127.283 336.269 127.583 337.969 140.183 327.369C144.483 323.769 149.183 320.069 150.583 319.169C151.983 318.269 154.783 316.169 156.883 314.569C160.183 311.969 160.783 311.769 162.083 313.069C162.983 313.869 164.183 317.769 164.983 321.769C166.183 327.869 166.083 329.769 164.883 335.069C163.183 342.569 157.683 353.769 153.283 358.769C151.383 360.769 148.583 364.269 146.983 366.469C145.383 368.669 143.683 370.969 143.083 371.669C140.983 374.269 139.983 375.569 138.483 377.969C137.583 379.369 133.683 384.269 129.783 388.869C125.883 393.469 122.183 398.769 121.483 400.669C120.283 404.469 114.983 414.769 113.083 416.969C109.183 421.569 106.583 428.269 106.583 433.469C106.583 436.369 106.083 440.069 105.583 441.569C104.583 444.069 104.183 444.169 100.183 443.669C95.7834 443.069 95.6834 443.069 89.9834 449.269C82.4834 457.369 79.5834 463.869 78.8834 473.869C78.0834 485.769 80.8834 498.969 84.1834 498.969C87.1834 498.969 103.283 511.869 105.583 516.069C106.183 516.969 105.483 522.269 103.883 530.069C100.283 547.969 99.8834 550.969 97.5834 576.969C95.5834 599.469 94.7834 649.269 96.0834 663.469C96.2834 666.269 96.9834 675.169 97.5834 683.469C99.2834 706.469 101.083 716.969 103.383 717.769C104.083 717.969 104.983 716.869 105.583 715.269C106.183 713.769 107.083 711.569 107.583 710.469C108.083 709.369 109.683 704.869 111.183 700.569C112.583 696.169 115.683 688.269 118.083 683.069C125.183 666.969 125.283 666.669 123.083 661.169C121.983 658.369 120.983 653.269 120.783 648.469C120.483 640.769 121.083 637.469 123.783 633.669C124.883 632.269 124.783 631.469 123.383 629.169C122.383 627.669 120.183 623.569 118.383 619.969L115.083 613.469L114.983 580.469C114.883 562.269 114.683 546.369 114.483 544.969C114.183 543.069 114.583 542.369 116.083 542.169C117.583 541.969 119.083 543.169 121.383 546.369C123.183 548.769 124.583 551.469 124.583 552.269C124.583 554.269 127.883 556.969 130.483 556.969C133.283 556.969 133.983 558.869 132.683 563.569C132.183 565.769 131.383 576.269 131.083 586.969C130.283 611.869 130.383 611.369 126.083 610.569C121.683 609.669 121.683 610.469 125.583 617.869C130.783 627.469 134.383 631.069 139.583 631.569C149.483 632.669 150.583 632.969 150.583 634.969C150.583 637.369 146.983 640.169 141.083 642.369C136.483 644.169 136.383 644.169 134.183 642.069C131.283 639.369 130.183 639.369 128.583 642.469C126.883 645.669 128.383 655.769 131.483 662.269C134.983 669.469 134.283 673.969 126.783 691.969C113.683 723.269 114.283 722.169 106.583 730.469C102.683 734.769 98.1834 742.469 94.6834 751.469C94.1834 752.569 93.3834 754.569 92.7834 755.969C92.1834 757.369 90.5834 761.869 89.0834 765.969C87.5834 770.069 85.9834 774.369 85.5834 775.469C82.7834 781.869 81.1834 788.569 80.5834 796.969C79.9834 804.069 79.1834 807.769 77.2834 811.469C75.8834 814.169 74.2834 818.369 73.6834 820.669C72.9834 822.969 70.6834 829.569 68.4834 835.169C63.8834 846.669 47.8834 894.469 43.9834 908.469C42.5834 913.369 40.1834 922.369 38.4834 928.469C33.7834 946.069 32.6834 949.969 32.1834 950.769C31.8834 951.269 30.7834 955.169 29.5834 959.469C27.9834 965.269 27.5834 969.669 27.7834 976.869L27.9834 986.469L19.9834 1001.47C15.4834 1009.67 10.4834 1018.97 8.78342 1021.97C4.98342 1028.67 4.58342 1033.37 7.88342 1035.07C9.48342 1035.97 16.8834 1036.27 34.4834 1036.17C47.8834 1035.97 59.2834 1035.67 59.6834 1035.37C60.1834 1035.07 60.5834 1027.97 60.5834 1019.67C60.5834 1006.97 60.8834 1003.57 62.5834 998.969C63.6834 995.969 64.5834 992.569 64.5834 991.369C64.5834 990.169 65.2834 987.569 66.0834 985.569C66.9834 983.569 68.2834 979.169 68.9834 975.669C69.7834 972.269 71.6834 965.869 73.2834 961.469C75.6834 955.169 97.6834 899.669 101.483 890.469C102.483 887.969 103.683 884.569 108.783 869.469C112.583 858.069 113.983 853.369 115.283 846.469C116.483 840.069 121.783 835.869 124.283 839.169C124.783 839.869 126.683 844.269 128.483 848.969C136.283 869.069 151.983 900.369 158.183 908.269C159.383 909.769 160.983 910.969 161.683 910.969C162.483 910.869 166.283 908.169 170.083 904.769C182.483 894.069 191.983 890.969 213.083 890.969C225.883 890.969 237.883 892.169 247.383 894.469C257.383 896.969 270.783 900.869 273.483 902.269C278.083 904.569 283.583 915.269 289.183 932.469C291.983 941.169 302.483 982.369 304.583 992.969C305.283 996.569 306.283 1000.17 306.683 1001.17C307.183 1002.07 308.183 1009.07 308.983 1016.67C309.783 1024.27 310.983 1031.77 311.483 1033.27L312.583 1035.97H342.083C364.983 1035.97 371.583 1035.67 371.683 1034.67C372.283 1028.77 366.683 1020.77 358.383 1015.47C354.783 1013.27 352.383 1009.17 349.083 999.969C346.083 991.569 344.183 983.869 343.083 976.469C342.483 971.869 340.183 962.269 337.683 953.969C334.683 944.069 328.383 914.369 327.583 906.469C326.583 895.669 326.483 895.869 338.083 890.969C371.883 876.869 402.483 849.269 439.283 799.969C449.283 786.469 460.583 770.269 460.583 769.369C460.583 768.969 462.683 765.569 470.183 753.969C471.383 752.069 472.783 748.769 473.083 746.769C473.883 742.569 474.883 743.069 460.883 740.569C449.883 738.569 443.583 735.769 443.583 732.869C443.583 727.869 464.083 706.869 487.083 688.369C496.583 680.669 501.283 676.369 514.183 663.369C527.283 650.369 533.583 641.669 533.583 637.069V634.169L525.383 633.569C520.783 633.269 509.883 632.769 501.083 632.469C492.283 632.169 482.583 631.569 479.583 631.069C472.183 629.869 447.083 619.869 440.183 615.469C437.183 613.569 434.383 611.969 434.083 611.969C433.483 611.969 420.083 603.469 413.283 598.769C409.083 595.869 375.783 579.469 367.283 576.069C354.983 571.169 332.983 564.069 315.483 559.469C295.283 554.069 284.083 549.869 275.883 544.669C269.183 540.569 258.883 529.969 257.983 526.469C257.683 525.269 258.383 520.569 259.483 515.869C260.583 511.269 261.983 504.769 262.683 501.469C263.283 498.169 264.883 493.369 266.183 490.769C267.983 487.269 268.583 484.369 268.583 479.769C268.583 471.369 270.083 468.669 274.983 467.869C277.083 467.569 279.183 466.669 279.683 465.869C281.083 463.769 279.783 453.469 276.883 444.669C273.183 433.069 266.683 425.569 258.583 423.669C256.683 423.169 255.283 421.469 253.183 417.269C251.683 414.069 248.883 408.969 246.983 405.869C245.183 402.869 242.083 396.269 240.183 391.269C235.183 378.169 229.183 367.469 223.883 362.069C223.083 361.369 220.683 357.169 218.483 352.769C216.283 348.369 211.883 340.869 208.683 336.169C202.283 326.669 198.783 320.369 196.883 314.969C195.583 311.369 195.183 306.969 196.083 306.969C196.383 306.969 200.583 310.369 205.383 314.569C221.683 328.869 232.583 336.269 232.583 333.169C232.583 332.669 228.183 327.269 222.883 321.069C208.483 304.469 207.083 302.369 208.483 300.569C209.783 299.069 206.783 299.169 313.083 297.069C374.483 295.869 386.583 295.369 386.583 293.969C386.583 292.869 344.983 291.169 258.583 288.869C222.583 287.869 210.483 287.469 207.383 287.069C204.983 286.769 207.483 283.869 213.583 279.969C220.183 275.769 222.383 272.969 219.183 272.969C218.383 272.969 214.183 273.669 209.883 274.469C200.183 276.369 199.583 276.369 199.583 274.369C199.583 272.369 201.983 268.869 212.383 256.169C218.383 248.869 220.583 245.569 219.783 244.769C218.483 243.469 218.283 243.669 202.683 257.669C198.283 261.669 192.883 264.669 191.983 263.669C191.083 262.769 192.583 259.369 217.183 208.169C224.283 193.469 225.583 189.969 223.783 189.969C222.683 189.969 217.683 197.769 214.083 204.969C212.583 207.969 209.883 212.969 208.083 215.969C201.583 226.969 192.883 242.569 191.183 246.169C189.483 249.969 186.483 251.269 185.083 248.869C184.483 247.969 183.883 214.069 182.083 71.9692C181.583 28.1692 180.583 5.56925 178.983 1.46925C178.283 -0.330753 176.683 -0.530753 176.083 1.16925ZM198.183 369.169C200.383 371.669 202.783 377.469 207.583 391.469C210.983 401.469 212.583 405.469 216.783 414.969L219.683 421.369L219.383 453.569L219.083 485.769L216.583 487.869C213.683 490.269 210.983 490.569 210.283 488.569C209.983 487.769 210.683 484.469 211.783 481.269C213.483 476.569 213.883 473.269 213.883 463.969C213.883 444.969 210.083 434.669 198.383 422.369L191.283 414.969H185.083C178.783 414.969 169.583 417.369 165.283 420.269C159.283 424.169 151.583 442.869 151.583 453.369C151.583 459.669 151.683 459.969 159.083 471.169C169.683 487.169 170.583 488.269 174.783 491.469C176.883 493.069 178.483 494.869 178.283 495.469C178.083 495.969 176.183 496.569 173.983 496.769C170.983 496.969 168.983 496.369 166.283 494.469C164.183 493.069 162.183 491.969 161.683 491.969C159.683 491.969 156.183 486.369 153.183 478.369C151.383 473.469 148.683 466.969 147.283 463.869C143.383 455.269 140.483 444.869 141.083 441.869C141.383 440.369 143.483 436.869 145.583 433.969C147.783 431.069 150.083 427.069 150.683 425.069C151.283 423.069 152.883 419.369 154.183 416.769C156.583 411.969 157.383 410.069 162.483 396.169C168.683 379.069 170.883 377.069 176.983 382.769C180.783 386.369 183.183 387.269 185.583 385.969C187.283 385.069 190.583 378.269 190.583 375.569C190.583 372.969 193.583 366.969 194.883 366.969C195.683 366.969 197.083 367.969 198.183 369.169ZM287.583 611.469C287.583 611.669 286.283 614.869 284.583 618.469C281.883 624.369 281.583 626.069 281.583 635.069C281.583 643.569 281.983 646.169 284.183 651.769C285.683 655.469 287.283 658.969 287.783 659.569C288.283 660.269 290.483 664.169 292.683 668.469C297.383 677.369 297.483 680.769 293.583 693.969C289.083 709.369 290.183 729.469 296.283 741.969C299.383 748.469 312.983 762.269 319.483 765.669C321.883 766.969 325.283 767.969 327.083 767.969C329.883 767.969 330.383 767.569 330.983 764.869C331.283 763.169 331.583 758.869 331.583 755.269C331.583 748.569 330.083 746.469 327.083 748.969C324.983 750.669 323.283 749.269 324.683 746.869C325.183 745.769 325.583 743.669 325.383 742.169C325.083 739.769 324.583 739.369 319.583 738.669C316.583 738.269 313.783 737.569 313.283 737.069C311.883 735.669 313.483 733.969 316.183 733.969C319.083 733.969 325.083 731.669 325.983 730.169C326.283 729.569 325.683 727.069 324.583 724.469C323.483 721.869 322.583 719.569 322.583 719.369C322.583 718.069 326.383 719.269 327.883 720.969C331.683 725.469 331.783 725.169 333.683 674.969C334.283 658.769 335.183 645.069 335.583 644.669C336.483 643.669 337.283 658.769 338.083 687.969C338.783 713.869 339.483 722.969 340.783 722.969C341.383 722.969 342.983 721.769 344.483 720.169C346.483 717.969 347.083 717.769 347.383 719.069C347.583 719.969 346.783 722.369 345.583 724.469L343.483 728.269L345.683 730.569C346.983 731.969 349.583 733.169 352.083 733.469C354.383 733.869 356.883 734.569 357.683 735.069C359.683 736.369 357.383 737.669 351.883 738.569C349.583 738.869 346.883 739.769 345.883 740.469C344.183 741.769 344.183 741.969 345.983 745.369C348.283 749.669 347.583 750.869 344.183 748.569C342.783 747.669 341.183 746.969 340.583 746.969C339.983 746.969 339.583 750.869 339.583 757.369C339.583 767.269 339.683 767.769 341.783 768.269C346.983 769.669 356.183 764.469 365.083 755.269C377.883 742.069 381.083 733.869 380.983 714.469C380.983 702.969 380.683 700.569 378.183 693.469C373.383 679.569 373.483 677.969 379.983 666.569C391.283 646.669 393.383 632.369 387.083 618.469C385.583 615.369 384.683 612.269 384.883 611.669C385.483 610.269 396.483 621.569 400.683 627.869C404.583 633.569 407.883 640.169 410.183 646.969C411.683 651.369 412.083 655.369 412.083 666.969C412.083 681.469 411.683 683.269 407.483 693.469C403.983 702.069 402.783 706.469 403.683 707.469C405.083 708.769 408.583 704.369 412.983 695.969C417.083 688.069 418.183 682.969 419.183 667.669C419.783 657.569 420.083 655.969 421.483 656.169C422.483 656.369 423.583 658.469 424.483 661.469C426.283 668.169 426.483 696.669 424.783 703.869C423.483 709.569 418.583 720.569 415.483 725.169C413.483 727.869 412.983 730.969 414.383 730.969C415.083 730.969 419.583 725.469 421.583 722.069C421.983 721.369 422.883 720.869 423.483 721.069C424.883 721.569 416.583 737.969 411.483 744.569C403.283 755.269 386.483 767.869 372.083 774.169C363.883 777.769 359.583 778.869 349.083 779.969C327.083 782.369 313.183 780.369 295.583 772.169C292.083 770.569 288.783 768.569 279.083 762.369C272.683 758.269 261.483 746.469 255.383 737.469C250.583 730.269 246.083 721.169 246.883 720.369C247.183 720.069 249.283 722.169 251.583 724.869C258.483 732.969 259.283 731.269 253.683 720.669C247.783 709.769 245.983 703.869 245.083 693.269C244.083 681.269 246.783 659.669 249.783 656.469C251.583 654.469 252.583 658.669 252.583 668.969C252.583 683.769 255.283 692.369 262.983 702.669C265.783 706.569 268.583 708.269 268.583 706.169C268.583 705.669 266.683 700.369 264.383 694.369L260.083 683.469V667.469C260.183 658.669 260.683 649.769 261.283 647.769C263.983 638.369 270.483 627.369 278.083 619.169C284.783 611.969 287.583 609.769 287.583 611.469Z" fill="black"/>
</svg>
