<svg width="253" height="242" viewBox="0 0 253 242" fill="none" xmlns="http://www.w3.org/2000/svg">
<path fill-rule="evenodd" clip-rule="evenodd" d="M61.1602 13.6156C65.3602 4.91555 67.8602 2.21555 73.2602 0.915555C82.1602 -1.08445 83.6602 -0.384445 90.3602 8.91555C104.56 28.3156 105.46 30.0156 106.16 38.5156C106.56 42.8156 107.36 49.2156 107.86 52.8156C108.46 56.4156 108.86 61.6156 108.86 64.4156C108.86 67.7156 109.86 72.2156 111.86 77.4156C116.76 90.1156 116.96 90.9156 115.26 93.3156C113.1 96.2698 111.911 97.6687 111.489 99.2696C110.954 101.299 111.651 103.654 113.16 109.916C114.56 115.616 117.06 126.416 118.76 133.816C120.46 141.216 122.56 147.816 123.36 148.416C124.06 149.016 125.06 150.916 125.36 152.616C125.96 155.616 129.06 159.816 130.66 159.816C131.16 159.816 132.06 161.116 132.76 162.816C133.66 165.116 135.06 166.016 139.16 167.316C141.527 167.992 144.966 169.097 147.483 169.906C147.944 170.054 148.374 170.192 148.76 170.316C151.26 171.116 172.36 177.616 195.76 184.716C248.36 200.816 252.76 202.316 252.76 204.816C252.76 207.416 242.06 205.116 215.96 196.816C212.46 195.716 196.96 190.916 181.46 186.216C165.96 181.516 149.06 176.316 143.96 174.716C136.239 172.31 133.404 171.428 132.364 172.422C131.76 172.999 131.76 174.207 131.76 176.116C131.76 182.616 128.06 195.516 124.86 200.216C123.26 202.516 120.76 206.816 119.26 209.816L116.56 215.216L117.66 226.316C117.856 228.306 118.041 229.168 118.202 229.915C118.531 231.448 118.757 232.501 118.76 241.816H79.4512L78.8602 241.816C78.8569 241.816 78.8537 241.816 78.8505 241.816H71.5921C71.5911 241.816 71.5907 241.816 71.5907 241.816H58.0907H49.5907H43.7602H18.0907H14.7602C14.7602 241.816 14.7595 241.816 14.7581 241.816H0.0600229C-0.740845 238.453 6.63015 196.401 12.7602 168.816C15.7602 155.316 15.9602 153.416 15.4602 141.316C15.0602 132.416 15.3602 125.416 16.2602 119.316C16.833 115.735 17.5084 110.873 18.066 106.859C18.2872 105.267 18.4898 103.808 18.6602 102.616C19.3602 96.6156 20.7602 92.3156 25.1602 82.7156C29.9602 72.3156 30.7602 70.0156 29.8602 68.0156C28.2602 64.6156 28.5602 59.6156 30.5602 56.6156C31.4602 55.2156 34.9602 50.9156 38.2602 47.1156C46.6602 37.6156 57.0602 22.4156 61.1602 13.6156Z" fill="black"/>
</svg>
