<svg width="518" height="633" viewBox="0 0 518 633" fill="none" xmlns="http://www.w3.org/2000/svg">
<path d="M384.211 154.275C379.811 155.075 370.811 157.375 364.211 159.575C354.811 162.575 351 163.5 347.5 164.5C345.328 164.307 343.783 162.752 342.5 163.11C341.124 163.493 339.833 164.323 337.711 165.875C329.911 171.475 320.011 180.875 313.711 188.375C308.811 194.275 307.5 196.175 306 197.5C305.54 197.5 303.727 195.344 303 195.675C298.981 197.503 291 206.5 291 206.5L296.311 212.375L301.5 218L291 246L289 245C288.5 245 287.5 248 287.5 249L289 250.5L261 327L259 326.5C259 326.5 253.311 337.375 249.111 349.375C246.611 356.675 246 358.5 246 358.5C246.284 358.949 248.206 360.69 248.343 361L247 364L244.911 364.875H244.5L232.5 397L235 398.5L219.5 438.5L213.5 447L216.5 455.5C215 460.5 211.5 467 211.5 467C211.5 467 217.411 471.075 220.711 472.075C224.011 473.075 227.111 474.375 227.711 474.975C228.211 475.675 231.611 481.975 235.311 489.175C238.911 496.275 242.511 502.675 243.111 503.375C243.811 503.975 247.811 505.875 252.111 507.675L261 512L260.5 515C261.7 515.3 266.5 519.5 266.5 519.5C266.5 519.5 265.438 524.5 267 527.5C269.5 532.3 272 533.5 272 533.5L263 550H253C253 550 211.711 604.875 210.611 607.475C209.911 608.975 206.011 613.975 206.011 613.975L206.5 615L199.5 624.5L206 633H359.5C480.9 633 513 633 513 633C513 633 515.211 628.375 516.211 626.175L517.911 622.175L507.711 604.675C502.211 595.075 495.911 584.275 493.811 580.675C480.711 557.975 478.211 554.275 474.911 552.575C470.711 550.375 470.611 550.275 467.511 540.175C463.511 527.475 463 526 463 526C465.1 524.6 467.511 523.5 467.511 523.5C467.511 523.5 462.761 506.575 461 505L458.5 505.5C458.5 505.5 458.5 504.198 457 503C454.647 501.122 453.735 503.136 453 500.5L443 470.5L441 471L435 449C435 449 443.911 426.475 447.811 415.875C451.711 405.275 455.311 395.575 455.811 394.375C456.311 393.175 461.011 380.475 466.311 366.175C471.611 351.875 479.311 331.375 483.311 320.675C487.311 309.975 494 292.9 495 290C495 290 497.5 291.5 499 293.5L500 295C503.8 293 511.811 284.475 511.811 282.775C511.811 281.875 508.911 277.975 505.311 274.175L498.911 267.175L498.811 255.475C498.811 243.275 497.311 234.175 493.611 224.675C488.011 210.175 484.711 203.275 480.411 197.175C477.811 193.584 476.5 191 476.5 191C476.616 190.598 477.452 189.9 478 189.776C478.305 189.706 479.064 190.547 479.5 190.547L486 185C485.289 183.625 475 172.5 475 172.5C474.6 172.5 472.211 174.275 469.911 176.275L465.711 179.975L462.011 176.475C448.511 163.775 433.311 156.875 413.611 154.275C400.111 152.575 394.911 152.575 384.211 154.275ZM382.211 533.5C383.811 534.1 390.1 537.3 391 540C391 541.5 391.871 540.399 392.5 541C393.014 541.493 393.69 543.675 394.5 543.675H398L400 550H391.5C391.5 550 391.311 550.075 382.211 567.175C378.411 574.375 375.111 576.575 370.311 574.775C368.611 574.175 365 573.5 364 573.5C360.9 573.5 356.7 577.9 354.5 581.5C352.3 585 355.7 587.175 357.5 594.475H349.5C349.5 594.475 346.011 589.175 328.611 564.675C319.611 551.975 319.511 551.875 315.611 550.975C310.511 549.875 312 550.5 312.5 548.5C316.5 546.8 330.211 540.775 330.611 540.875C331.011 540.975 331.7 541.575 333 540.875C334.5 539 335.5 539 335.5 539L352.911 544.875L367.111 539.375C381.911 533.575 382.211 533.5 382.211 533.5Z" fill="black"/>
</svg>
