<svg width="319" height="480" viewBox="0 0 319 480" fill="none" xmlns="http://www.w3.org/2000/svg">
<path d="M185.211 1.2748C180.811 2.0748 171.811 4.3748 165.211 6.5748C155.811 9.5748 152 10.5 148.5 11.5C146.328 11.307 144.783 9.75175 143.5 10.1095C142.124 10.493 140.833 11.3225 138.711 12.8748C130.911 18.4748 121.011 27.8748 114.711 35.3748C109.811 41.2748 108.5 43.1748 107 44.5C106.54 44.5 104.727 42.344 104 42.6748C99.9811 44.5025 92 53.5 92 53.5L97.311 59.3748L102.5 65L92 93L90 92C89.5 92 88.5 95 88.5 96L90 97.5L62 174L60 173.5C60 173.5 54.311 184.375 50.111 196.375C47.611 203.675 47 205.5 47 205.5C47.2837 205.949 49.2058 207.689 49.3429 208L48 211L45.911 211.875H45.5L33.5 244L36 245.5L20.5 285.5L14.5 294L17.5 302.5C16 307.5 12.5 314 12.5 314C12.5 314 18.411 318.075 21.711 319.075C25.011 320.075 28.111 321.375 28.711 321.975C29.211 322.675 32.611 328.975 36.311 336.175C39.911 343.275 43.511 349.675 44.111 350.375C44.811 350.975 48.811 352.875 53.111 354.675L62 359L61.5 362C62.7 362.3 67.5 366.5 67.5 366.5C67.5 366.5 66.4375 371.5 68 374.5C70.5 379.3 73 380.5 73 380.5L64 397H54C54 397 12.711 451.875 11.611 454.475C10.911 455.975 7.01103 460.975 7.01103 460.975L7.5 462L0.5 471.5L6.91103 479.675H160.311C281.711 479.675 313.711 479.375 314.511 478.375C315.011 477.775 316.211 475.375 317.211 473.175L318.911 469.175L308.711 451.675C303.211 442.075 296.911 431.275 294.811 427.675C281.711 404.975 279.211 401.275 275.911 399.575C271.711 397.375 271.611 397.275 268.511 387.175C264.511 374.475 264 373 264 373C266.1 371.6 268.511 370.5 268.511 370.5C268.511 370.5 263.761 353.574 262 352L259.5 352.5C259.5 352.5 259.5 351.197 258 350C255.647 348.122 254.735 350.135 254 347.5L244 317.5L242 318L236 296C236 296 244.911 273.475 248.811 262.875C252.711 252.275 256.311 242.575 256.811 241.375C257.311 240.175 262.011 227.475 267.311 213.175C272.611 198.875 280.311 178.375 284.311 167.675C288.311 156.975 295 139.9 296 137C296 137 298.5 138.5 300 140.5L301 142C304.8 140 312.811 131.475 312.811 129.775C312.811 128.875 309.911 124.975 306.311 121.175L299.911 114.175L299.811 102.475C299.811 90.2748 298.311 81.1748 294.611 71.6748C289.011 57.1748 285.711 50.2748 281.411 44.1748C278.811 40.5838 277.5 38 277.5 38C277.616 37.5978 278.452 36.8995 279 36.7753C279.305 36.7063 280.064 37.5472 280.5 37.5472L287 32C286.289 30.6252 276 19.5 276 19.5C275.6 19.5 273.211 21.2748 270.911 23.2748L266.711 26.9748L263.011 23.4748C249.511 10.7748 234.311 3.8748 214.611 1.2748C201.111 -0.425202 195.911 -0.425202 185.211 1.2748ZM183.211 380.5C184.811 381.1 191.1 384.3 192 387C192 388.5 192.871 387.398 193.5 388C194.014 388.492 194.69 390.675 195.5 390.675H199L201 397H192.5C192.5 397 192.311 397.075 183.211 414.175C179.411 421.375 176.111 423.575 171.311 421.775C169.611 421.175 166 420.5 165 420.5C161.9 420.5 157.7 424.9 155.5 428.5C153.3 432 156.7 434.175 158.5 441.475H150.5C150.5 441.475 147.011 436.175 129.611 411.675C120.611 398.975 120.511 398.875 116.611 397.975C111.511 396.875 113 397.5 113.5 395.5C117.5 393.8 131.211 387.775 131.611 387.875C132.011 387.975 132.7 388.575 134 387.875C135.5 386 136.5 386 136.5 386L153.911 391.875L168.111 386.375C182.911 380.575 183.211 380.5 183.211 380.5Z" fill="black"/>
</svg>
