<?xml version="1.0" standalone="no"?>
<!DOCTYPE svg PUBLIC "-//W3C//DTD SVG 20010904//EN"
 "http://www.w3.org/TR/2001/REC-SVG-20010904/DTD/svg10.dtd">
<svg version="1.0" xmlns="http://www.w3.org/2000/svg"
 width="1024.000000pt" height="1024.000000pt" viewBox="0 0 1024.000000 1024.000000"
 preserveAspectRatio="xMidYMid meet">
<metadata>
Created by potrace 1.11, written by Peter Selinger 2001-2013
</metadata>
<g transform="translate(0.000000,1024.000000) scale(0.100000,-0.100000)"
fill="#000000" stroke="none">
<path d="M4858 10115 c-2 -2 -48 -6 -103 -9 -93 -6 -155 -12 -215 -21 -14 -2
-50 -7 -80 -10 -60 -7 -160 -22 -200 -30 -23 -5 -43 -8 -110 -20 -14 -3 -56
-12 -95 -20 -38 -9 -81 -18 -95 -21 -14 -2 -83 -20 -155 -40 -990 -268 -1878
-841 -2538 -1637 -116 -140 -387 -512 -387 -532 0 -2 -23 -40 -51 -86 -98
-158 -239 -433 -315 -617 -49 -118 -135 -343 -140 -366 -2 -11 -17 -60 -33
-110 -60 -182 -141 -527 -156 -661 -3 -32 -8 -62 -10 -65 -2 -3 -6 -30 -9 -60
-4 -30 -9 -71 -11 -90 -15 -121 -23 -200 -30 -332 l-5 -88 28 -1 c29 0 9628 0
9845 1 l127 0 -5 93 c-11 195 -31 394 -50 497 -3 14 -7 43 -11 65 -5 39 -29
167 -39 213 l-5 22 -1014 0 -1013 0 1 178 1 177 357 3 356 2 -1 178 -2 177
-710 1 c-390 1 -712 2 -715 3 -7 2 -4 341 3 348 4 3 245 6 537 6 l530 0 0 178
0 179 -179 0 -179 0 0 148 c0 81 -1 161 -1 178 l-1 32 -348 -1 c-191 0 -352 2
-357 5 -8 5 -12 271 -6 343 1 7 65 10 178 10 l178 0 0 178 0 177 -357 0 -358
0 0 180 0 180 179 0 179 0 -2 291 -1 291 -110 50 c-182 82 -551 216 -695 252
-14 3 -86 22 -160 41 -74 19 -153 37 -175 40 -22 4 -67 12 -100 20 -33 7 -82
16 -110 19 -27 4 -77 11 -110 16 -33 5 -76 11 -95 14 -20 3 -72 8 -115 11 -44
4 -96 9 -115 11 -35 6 -617 13 -622 9z m-1315 -1084 c217 -37 378 -96 542
-200 352 -222 581 -560 654 -966 26 -144 25 -346 -1 -492 -68 -386 -290 -724
-613 -938 -170 -112 -332 -178 -539 -221 -94 -19 -314 -24 -436 -10 -83 10
-236 48 -323 81 -492 185 -841 623 -914 1150 -9 66 -9 316 1 385 48 352 262
720 536 923 30 22 57 43 60 47 9 11 122 76 195 113 57 28 239 99 248 96 1 -1
20 4 42 9 22 6 61 14 87 17 25 4 68 10 95 14 69 10 286 6 366 -8z"/>
<path d="M163 4942 l-43 -3 5 -92 c3 -51 7 -117 10 -147 3 -30 8 -82 11 -115
3 -33 12 -103 20 -155 8 -52 17 -113 20 -135 3 -22 13 -74 21 -115 8 -41 17
-86 20 -100 2 -14 11 -54 19 -90 9 -36 17 -72 19 -80 67 -295 233 -736 400
-1064 143 -280 382 -651 534 -832 14 -17 44 -52 66 -79 162 -199 418 -458 605
-615 30 -25 70 -59 90 -76 19 -17 64 -52 100 -79 36 -27 67 -52 70 -55 13 -15
345 -240 355 -240 4 0 19 -8 33 -19 127 -90 498 -274 787 -391 189 -77 544
-186 673 -206 20 -3 45 -10 54 -15 9 -5 21 -8 25 -7 4 1 35 -4 68 -11 151 -32
158 -33 340 -57 22 -3 51 -7 65 -9 30 -5 105 -12 225 -21 179 -15 654 -9 840
10 17 2 61 7 100 11 38 3 72 8 75 10 3 1 30 6 61 9 31 4 65 8 75 10 11 2 75
14 144 26 69 13 130 26 135 31 6 4 10 56 9 121 l0 113 -172 1 c-94 0 -175 4
-179 8 -12 12 -10 345 2 349 5 1 247 3 538 2 l527 0 0 177 0 178 179 0 178 0
1 148 c0 81 0 162 1 180 l1 32 535 0 535 0 2 178 3 177 170 1 c94 1 173 2 176
3 4 0 6 81 7 178 l0 178 -357 0 -356 0 0 178 0 177 -537 0 -538 0 0 178 0 179
348 1 c191 0 352 1 357 1 7 1 10 59 10 164 -1 89 1 169 4 177 5 14 90 15 716
15 l710 0 0 178 1 177 -358 0 -358 0 0 180 0 180 834 0 c786 0 835 1 840 18 6
20 23 113 31 162 3 19 10 58 15 85 5 28 11 70 14 95 3 25 8 63 10 85 12 95 21
202 31 363 l5 82 -113 0 c-800 3 -9813 4 -9844 2z"/>
</g>
</svg>
