<svg width="405" height="369" viewBox="0 0 405 369" fill="none" xmlns="http://www.w3.org/2000/svg">
<path d="M4.05191 0.507471C2.25191 2.20747 3.85191 4.80747 8.65191 8.10747C11.4519 10.1075 21.7519 17.5075 31.3519 24.7075C40.9519 31.8075 57.1519 43.8075 67.3519 51.2075C90.9519 68.5075 109.652 82.2075 137.552 102.707C149.852 111.807 161.352 120.007 163.152 121.107C164.852 122.107 166.652 124.007 166.952 125.307C167.252 126.507 168.852 128.107 170.652 128.907C173.152 130.007 173.952 131.007 174.152 133.507C174.452 136.607 174.052 137.007 163.652 143.807C149.052 153.407 132.252 161.607 111.852 169.007C94.6519 175.307 67.4519 188.407 52.8519 197.507C48.4519 200.207 42.3519 204.007 39.3519 205.807C32.5519 210.007 7.05191 230.307 2.45191 235.207C-0.0480948 237.807 -0.548095 238.807 0.551905 238.807C1.45191 238.807 2.55191 238.307 2.85191 237.807C3.95191 236.107 12.6519 236.707 18.3519 238.907C21.3519 240.107 24.8519 241.207 26.0519 241.507C30.8519 242.607 29.5519 245.807 22.1519 250.407C17.2519 253.507 16.5519 255.307 19.1519 258.107C21.8519 260.907 25.4519 262.707 37.8519 267.407C52.1519 272.807 60.3519 276.607 60.3519 278.007C60.3519 278.707 59.1519 280.407 57.7519 281.907C55.7519 283.907 55.2519 285.307 55.7519 287.107C56.0519 288.407 60.8519 293.607 66.3519 298.707C74.2519 306.007 77.1519 309.507 80.0519 315.107C82.7519 320.107 84.8519 322.807 87.2519 324.207C91.6519 326.807 101.952 328.707 111.152 328.807C117.552 328.807 118.352 329.007 118.352 330.707C118.352 331.707 117.652 333.107 116.852 333.807C116.052 334.507 115.352 335.607 115.352 336.407C115.352 339.007 119.552 340.007 131.652 340.007C143.452 340.007 147.352 339.507 164.852 336.207C169.252 335.307 174.452 334.807 176.352 335.007C179.752 335.307 179.852 335.407 179.952 340.107C179.952 342.707 180.552 345.407 181.252 346.107C182.052 346.907 186.252 347.307 194.352 347.207C204.352 347.107 206.752 346.807 210.252 344.907C213.552 343.307 216.152 342.807 222.752 342.807C228.552 342.807 231.452 342.407 232.252 341.507C234.852 338.307 243.352 337.707 279.352 338.007L314.852 338.307L315.152 341.407C315.352 343.207 314.352 347.207 313.052 350.407C310.652 356.007 309.852 360.307 310.252 365.707L310.352 368.007L322.152 367.607C336.852 367.107 338.152 366.407 338.552 359.507L338.852 354.307L346.852 353.707C354.152 353.107 366.852 349.707 372.052 347.007C373.852 346.007 374.152 346.207 374.752 349.007C375.052 350.707 375.352 353.807 375.352 355.907C375.352 358.107 375.652 359.807 376.152 359.807C379.752 359.707 397.752 350.707 401.652 347.007C403.152 345.607 404.352 343.507 404.352 342.307C404.352 338.607 393.552 312.407 379.052 281.307C360.052 240.307 356.952 233.007 350.752 216.007C344.552 198.607 340.652 182.207 338.352 163.307C336.452 148.207 333.352 128.607 331.852 122.807C330.052 115.507 325.552 95.6075 324.452 89.3075C321.552 73.9075 315.252 62.5075 306.952 57.3075C302.252 54.5075 301.452 54.3075 291.452 54.3075C284.552 54.3075 280.052 53.8075 278.552 53.0075C274.652 50.8075 276.452 49.3075 282.752 49.6075C285.852 49.7075 288.352 49.5075 288.352 49.2075C288.352 48.9075 285.952 44.0075 282.952 38.4075C280.052 32.9075 276.352 24.6075 274.852 20.1075C273.052 14.8075 270.952 10.9075 269.152 9.10747C266.552 6.60747 265.552 6.30747 259.552 6.30747C249.752 6.40747 245.752 8.10747 242.252 13.6075C239.752 17.5075 239.352 19.2075 239.352 25.1075C239.352 28.9075 238.652 37.6075 237.652 44.4075C236.752 51.2075 236.352 57.1075 236.652 57.4075C236.952 57.8075 239.052 57.3075 241.352 56.4075C243.552 55.5075 245.952 54.8075 246.752 54.8075C248.052 54.8075 250.352 58.8075 250.352 61.1075C250.352 63.1075 244.252 68.9075 230.852 79.3075C220.552 87.4075 215.552 92.3075 204.652 105.107C190.052 122.107 187.052 125.007 184.752 124.107C183.952 123.807 182.452 124.307 181.452 125.207C179.452 127.007 179.152 126.907 176.852 122.307C176.152 120.907 174.552 120.207 172.052 120.007C169.152 119.707 166.352 118.207 160.352 113.507C156.052 110.107 150.952 106.307 149.152 105.007C147.352 103.707 140.852 99.0075 134.752 94.5075C128.552 90.0075 118.952 82.9075 113.352 78.8075C100.952 69.8075 68.1519 45.6075 59.8519 39.3075C56.5519 36.8075 48.4519 30.9075 41.8519 26.1075C35.2519 21.4075 24.5519 13.5075 18.1519 8.60747C6.45191 -0.0925287 5.35191 -0.792529 4.05191 0.507471Z" fill="black"/>
</svg>
